<?xml version="1.0" encoding="UTF-8"?>
<svg
  xmlns="http://www.w3.org/2000/svg"
  width="500.41699"
  height="500.41699"
  viewBox="0 0 375.31274 375.31274"
  preserveAspectRatio="xMidYMid"
  role="img"
  aria-label="Barbara Sharon logo">
  <defs>
    <mask id="barbs-inverted-mark" maskUnits="userSpaceOnUse">
      <rect width="375.31274" height="375.31274" fill="#fff" />
      <g transform="matrix(0.3125,0,0,0.3125,0.156375,0.156375)">
        <path
          fill="#000"
          fill-rule="evenodd"
          d="M -3687.7073,1744.8 V -3621.7073 H 583.80003 4855.3073 V 1744.8 7111.3073 H 583.80003 -3687.7073 Z M 792.5856,1141.6034 c 47.9866,-6.0438 104.7896,-41.0346 146.8454,-90.4572 125.647,-147.6564 89.6581,-383.09703 -73.1447,-478.51461 -60.3556,-35.37377 -239.77124,-60.90126 -239.77124,-34.11473 0,18.02541 101.03917,189.35047 149.07794,252.78142 25.6849,33.91445 68.3241,79.38943 94.754,101.05542 26.43,21.6661 48.0544,42.3845 48.0544,46.0414 0,17.7227 -65.5439,84.3475 -98.4176,100.0404 -33.9037,16.1849 -55.1609,17.6629 -254.05806,17.6629 -119.38212,0 -217.17933,-3.0189 -217.32695,-6.7082 -0.14821,-3.6895 -0.9483,-208.95903 -1.77977,-456.15426 l -1.51147,-449.44613 62.29287,0.001 62.29287,0.001 V 96.559302 49.326512 l -99.96134,0.27545 -99.96114,0.27561 0.28389,550.066778 c 0.1559,302.53695 0.28832,550.09185 0.29236,550.12185 0.39033,2.522 498.99794,-5.5618 522.03774,-8.4636 z M 605.15764,747.52411 V 528.39177 h -34.81702 -34.81703 l -3.73623,33.54055 c -2.055,18.4475 -3.20635,117.05632 -2.55869,219.13103 l 1.17753,185.59025 h 37.37573 37.37571 z M 729.74319,438.63258 C 834.1144,419.97763 896.1432,354.612 902.6225,256.45394 910.4195,138.33049 841.4404,64.165482 709.84546,49.183682 l -53.99645,-6.14743 -2.2084,43.66969 -2.2084,43.669828 -58.73314,2.59772 -58.73314,2.59772 V 291.73268 447.8941 l 72.97148,-0.17722 c 40.13439,-0.0976 95.39692,-4.18545 122.80578,-9.08437 z" />
      </g>
    </mask>
  </defs>
  <rect width="375.31274" height="375.31274" fill="currentColor" mask="url(#barbs-inverted-mark)" />
</svg>
